<mxfile host="Electron" agent="Mozilla/5.0 (Macintosh; Intel Mac OS X 10_15_7) AppleWebKit/537.36 (KHTML, like Gecko) draw.io/24.7.17 Chrome/128.0.6613.36 Electron/32.0.1 Safari/537.36" version="24.7.17">
  <diagram name="ページ1" id="xpNTQWTKMIGmPehvb3ep">
    <mxGraphModel dx="954" dy="606" grid="1" gridSize="10" guides="1" tooltips="1" connect="1" arrows="1" fold="1" page="1" pageScale="1" pageWidth="827" pageHeight="1169" math="0" shadow="0">
      <root>
        <mxCell id="0" />
        <mxCell id="1" parent="0" />
        <mxCell id="-uQbCbEMbA7XAasOpxdS-17" value="" style="edgeStyle=none;orthogonalLoop=1;jettySize=auto;html=1;shape=flexArrow;rounded=1;startSize=8;endSize=8;" edge="1" parent="1">
          <mxGeometry width="100" relative="1" as="geometry">
            <mxPoint x="144" y="50" as="sourcePoint" />
            <mxPoint x="204" y="50" as="targetPoint" />
            <Array as="points" />
          </mxGeometry>
        </mxCell>
        <mxCell id="-uQbCbEMbA7XAasOpxdS-41" value="" style="ellipse;whiteSpace=wrap;html=1;" vertex="1" parent="1">
          <mxGeometry x="14" y="10" width="120" height="80" as="geometry" />
        </mxCell>
        <mxCell id="-uQbCbEMbA7XAasOpxdS-42" value="" style="ellipse;whiteSpace=wrap;html=1;aspect=fixed;fillColor=#f8cecc;strokeColor=#b85450;" vertex="1" parent="1">
          <mxGeometry x="44" y="20" width="20" height="20" as="geometry" />
        </mxCell>
        <mxCell id="-uQbCbEMbA7XAasOpxdS-43" value="" style="ellipse;whiteSpace=wrap;html=1;aspect=fixed;fillColor=#dae8fc;strokeColor=#6c8ebf;" vertex="1" parent="1">
          <mxGeometry x="104" y="40" width="20" height="20" as="geometry" />
        </mxCell>
        <mxCell id="-uQbCbEMbA7XAasOpxdS-44" value="" style="ellipse;whiteSpace=wrap;html=1;aspect=fixed;fillColor=#fff2cc;strokeColor=#d6b656;" vertex="1" parent="1">
          <mxGeometry x="50" y="50" width="20" height="20" as="geometry" />
        </mxCell>
        <mxCell id="-uQbCbEMbA7XAasOpxdS-45" value="" style="ellipse;whiteSpace=wrap;html=1;aspect=fixed;fillColor=#d5e8d4;strokeColor=#82b366;" vertex="1" parent="1">
          <mxGeometry x="84" y="60" width="20" height="20" as="geometry" />
        </mxCell>
        <mxCell id="-uQbCbEMbA7XAasOpxdS-46" value="" style="ellipse;whiteSpace=wrap;html=1;aspect=fixed;fillColor=#e1d5e7;strokeColor=#9673a6;" vertex="1" parent="1">
          <mxGeometry x="24" y="50" width="20" height="20" as="geometry" />
        </mxCell>
        <mxCell id="-uQbCbEMbA7XAasOpxdS-47" value="" style="ellipse;whiteSpace=wrap;html=1;aspect=fixed;fillColor=#f5f5f5;strokeColor=#666666;fontColor=#333333;" vertex="1" parent="1">
          <mxGeometry x="84" y="20" width="20" height="20" as="geometry" />
        </mxCell>
        <mxCell id="-uQbCbEMbA7XAasOpxdS-62" value="" style="ellipse;whiteSpace=wrap;html=1;" vertex="1" parent="1">
          <mxGeometry x="214" y="10" width="120" height="80" as="geometry" />
        </mxCell>
        <mxCell id="-uQbCbEMbA7XAasOpxdS-63" value="" style="ellipse;whiteSpace=wrap;html=1;aspect=fixed;fillColor=#dae8fc;strokeColor=#6c8ebf;" vertex="1" parent="1">
          <mxGeometry x="244" y="20" width="20" height="20" as="geometry" />
        </mxCell>
        <mxCell id="-uQbCbEMbA7XAasOpxdS-64" value="" style="ellipse;whiteSpace=wrap;html=1;aspect=fixed;fillColor=#dae8fc;strokeColor=#6c8ebf;" vertex="1" parent="1">
          <mxGeometry x="304" y="40" width="20" height="20" as="geometry" />
        </mxCell>
        <mxCell id="-uQbCbEMbA7XAasOpxdS-65" value="" style="ellipse;whiteSpace=wrap;html=1;aspect=fixed;fillColor=#f8cecc;strokeColor=#b85450;" vertex="1" parent="1">
          <mxGeometry x="250" y="50" width="20" height="20" as="geometry" />
        </mxCell>
        <mxCell id="-uQbCbEMbA7XAasOpxdS-66" value="" style="ellipse;whiteSpace=wrap;html=1;aspect=fixed;fillColor=#d5e8d4;strokeColor=#82b366;" vertex="1" parent="1">
          <mxGeometry x="284" y="60" width="20" height="20" as="geometry" />
        </mxCell>
        <mxCell id="-uQbCbEMbA7XAasOpxdS-67" value="" style="ellipse;whiteSpace=wrap;html=1;aspect=fixed;fillColor=#d5e8d4;strokeColor=#82b366;" vertex="1" parent="1">
          <mxGeometry x="224" y="50" width="20" height="20" as="geometry" />
        </mxCell>
        <mxCell id="-uQbCbEMbA7XAasOpxdS-68" value="" style="ellipse;whiteSpace=wrap;html=1;aspect=fixed;fillColor=#f8cecc;strokeColor=#b85450;" vertex="1" parent="1">
          <mxGeometry x="284" y="20" width="20" height="20" as="geometry" />
        </mxCell>
      </root>
    </mxGraphModel>
  </diagram>
</mxfile>
